<svg width="20" height="16" viewBox="0 0 20 16" fill="none" xmlns="http://www.w3.org/2000/svg">
<path d="M1.66663 7.16665C1.66663 4.41679 1.66663 3.04186 2.5209 2.18758C3.37517 1.33331 4.7501 1.33331 7.49996 1.33331H8.33329C11.0832 1.33331 12.4581 1.33331 13.3124 2.18758C14.1666 3.04186 14.1666 4.41679 14.1666 7.16665V8.83331C14.1666 11.5832 14.1666 12.9581 13.3124 13.8124C12.4581 14.6666 11.0832 14.6666 8.33329 14.6666H7.49996C4.7501 14.6666 3.37517 14.6666 2.5209 13.8124C1.66663 12.9581 1.66663 11.5832 1.66663 8.83331V7.16665Z" stroke="white" stroke-width="1.5"/>
<path d="M14.1666 5.4215L14.2716 5.33493C16.0347 3.88015 16.9163 3.15276 17.6248 3.50398C18.3333 3.85519 18.3333 5.01958 18.3333 7.34836V8.65156C18.3333 10.9803 18.3333 12.1447 17.6248 12.4959C16.9163 12.8472 16.0347 12.1198 14.2716 10.665L14.1666 10.5784" stroke="white" stroke-width="1.5" stroke-linecap="round"/>
<circle cx="9.58325" cy="5.91663" r="1.25" stroke="white" stroke-width="1.5"/>
</svg>
