<svg width="16" height="12" viewBox="0 0 16 12" fill="none" xmlns="http://www.w3.org/2000/svg">
<path d="M15.8983 5.6888C15.7554 5.49327 12.3496 0.9011 7.99992 0.9011C3.65019 0.9011 0.244313 5.49327 0.101531 5.68861C-0.0338438 5.87411 -0.0338438 6.12571 0.101531 6.31121C0.244313 6.50674 3.65019 11.0989 7.99992 11.0989C12.3496 11.0989 15.7554 6.50671 15.8983 6.31136C16.0339 6.12589 16.0339 5.87411 15.8983 5.6888ZM7.99992 10.044C4.79588 10.044 2.02085 6.99605 1.19938 5.99964C2.01979 5.00236 4.78901 1.95604 7.99992 1.95604C11.2038 1.95604 13.9787 5.00342 14.8005 6.00036C13.9801 6.99761 11.2108 10.044 7.99992 10.044Z" fill="#FCFCFC"/>
</svg>
