<svg width="24" height="24" viewBox="0 0 24 24" fill="none" xmlns="http://www.w3.org/2000/svg">
<path fill-rule="evenodd" clip-rule="evenodd" d="M0.75 4.23089H11.9265C11.8777 3.99323 11.8514 3.74747 11.8503 3.49589L11.8504 3.47484C11.8507 3.22017 11.8768 2.97141 11.9259 2.73094H0.75C0.335672 2.73094 0 3.06656 0 3.48094C0 3.89531 0.335625 4.23098 0.75 4.23089ZM10.7542 11.9978V12.0072C10.7504 13.2908 9.70284 14.335 8.41969 14.335C7.1377 14.335 6.09014 13.2919 6.08466 12.0093L6.0847 11.9962C6.0863 10.7102 7.13325 9.66497 8.41969 9.66497C9.70505 9.66492 10.7514 10.7097 10.7542 11.9945V11.9978ZM23.25 11.25H12.074C12.123 11.4896 12.1492 11.7375 12.1497 11.9913V11.9965V12.0114C12.149 12.2643 12.1228 12.5113 12.0737 12.75L23.25 12.75C23.6644 12.75 24 12.4144 24 12C24 11.5856 23.6644 11.25 23.25 11.25ZM4.76484 11.25H0.75C0.335672 11.25 0 11.5857 0 12C0 12.4144 0.335625 12.75 0.75 12.75L4.76545 12.75C4.71656 12.5123 4.69027 12.2665 4.68919 12.015L4.68923 11.9939C4.68956 11.7392 4.71563 11.4905 4.76484 11.25ZM15.5803 22.854C14.295 22.854 13.2486 21.8093 13.2458 20.5245V20.5212C13.2458 20.518 13.2458 20.5152 13.2458 20.5119C13.2497 19.2282 14.2972 18.184 15.5803 18.184C16.8623 18.184 17.9098 19.2271 17.9153 20.5097L17.9153 20.5229C17.9137 21.8087 16.8667 22.8541 15.5803 22.854ZM23.25 19.7691H19.2351C19.2841 20.0087 19.3103 20.2566 19.3108 20.5103V20.5155V20.5305C19.31 20.7833 19.2838 21.0302 19.2348 21.269H23.25C23.6644 21.269 24 20.9334 24 20.519C24 20.1047 23.6644 19.7691 23.25 19.7691ZM11.9259 19.7691H0.75C0.335672 19.7691 0 20.1047 0 20.5191C0 20.9335 0.335625 21.2691 0.75 21.2691H11.9265C11.8777 21.0314 11.8514 20.7856 11.8503 20.534L11.8504 20.513C11.8507 20.2583 11.8768 20.0095 11.9259 19.7691ZM13.2458 3.48314C13.2458 3.47977 13.2458 3.47709 13.2458 3.47377C13.2497 2.19005 14.2972 1.14591 15.5803 1.14591C16.8623 1.14586 17.9098 2.18902 17.9153 3.47161L17.9153 3.48473C17.9131 4.77009 16.8667 5.81597 15.5803 5.81597C14.295 5.81597 13.2485 4.77117 13.2458 3.48642V3.48314ZM19.2348 4.23098L23.25 4.23089C23.6644 4.23089 24 3.89531 24 3.48094C24 3.06652 23.6644 2.73094 23.25 2.73094H19.2351C19.2841 2.97056 19.3103 3.21844 19.3108 3.47217V3.47738V3.49233C19.3101 3.74522 19.2839 3.99216 19.2348 4.23098Z" fill="black"/>
</svg>
