<svg width="42" height="42" viewBox="0 0 42 42" fill="none" xmlns="http://www.w3.org/2000/svg">
<path d="M14.7507 33.6646C9.98231 33.3948 6.18556 29.4303 6.18556 24.5951C6.18556 19.5859 10.2606 15.5106 15.2694 15.5106C17.5095 15.5106 19.6606 16.3326 21.3263 17.8251C23.2502 19.5458 24.3538 22.0136 24.3538 24.5951C24.3538 26.76 23.5772 28.8447 22.1916 30.4765C23.1744 31.1132 24.3026 31.4936 25.4784 31.5803C26.8934 29.5204 27.6389 27.1168 27.6389 24.5951C27.6389 21.8934 26.7836 19.3273 25.1656 17.1742C23.8799 15.4626 22.1688 14.1077 20.217 13.2557C19.1353 12.7825 18.0043 12.4713 16.8393 12.3245C19.1941 10.591 20.0946 9.13815 20.0946 7.87095C20.0946 6.35031 18.8619 5.11761 17.3412 5.11761C16.5149 5.11761 15.7743 5.48205 15.2696 6.05835C14.765 5.48205 14.0243 5.11761 13.198 5.11761C11.6774 5.11761 10.4447 6.35031 10.4447 7.87095C10.4447 9.13836 11.3455 10.5914 13.7011 12.3253C7.6187 13.0983 2.90054 18.3061 2.90054 24.5951C2.90054 31.4153 8.44913 36.964 15.2694 36.964C16.2123 36.964 17.138 36.8593 18.0392 36.6531C16.801 35.8344 15.689 34.8266 14.7507 33.6646Z" fill="white"/>
<path d="M25.9965 12.2263C25.0535 12.2263 24.1278 12.331 23.2266 12.5372C24.4648 13.356 25.5768 14.3638 26.5151 15.5257C31.2835 15.7955 35.0803 19.76 35.0803 24.5951C35.0803 29.6043 31.0054 33.6797 25.9966 33.6797C23.7565 33.6797 21.6054 32.8577 19.9395 31.3652C18.0157 29.6444 16.912 27.1765 16.912 24.5951C16.912 22.4302 17.6886 20.3454 19.0742 18.7137C18.0915 18.0769 16.9633 17.6966 15.7875 17.6098C14.3723 19.6698 13.627 22.0733 13.627 24.595C13.627 27.2967 14.4822 29.8628 16.1003 32.016C17.386 33.7275 19.0971 35.0824 21.0488 35.9345C22.6107 36.6176 24.2751 36.9638 25.9966 36.9638C32.8167 36.9638 38.3653 31.4152 38.3653 24.595C38.3652 17.7749 32.8166 12.2263 25.9965 12.2263Z" fill="white"/>
</svg>
