<svg width="38" height="39" viewBox="0 0 38 39" fill="none" xmlns="http://www.w3.org/2000/svg">
<path d="M18.7686 0.901123C23.7637 0.901123 28.464 2.84446 31.9932 6.37964H31.9922C35.5275 9.90879 37.4708 14.6082 37.4708 19.6033C37.4707 24.5981 35.5273 29.2909 31.9922 32.8259L31.9932 32.8269C28.464 36.3621 23.7637 38.3044 18.7686 38.3044C13.9298 38.3044 9.36788 36.4818 5.87897 33.1541L5.54498 32.8269C2.00983 29.2918 0.0665266 24.5982 0.0664673 19.6033C0.0664673 14.6083 2.00979 9.90878 5.54498 6.37964L5.87897 6.05249C9.36791 2.72458 13.9296 0.901141 18.7686 0.901123Z" fill="#D08622" stroke="#D08622" stroke-width="0.0794097"/>
<path d="M12.1044 5.3479C12.279 5.378 12.8449 5.986 13.1699 8.35779C13.2 8.5745 13.3866 8.73703 13.6094 8.73703C13.8321 8.73703 14.0187 8.5745 14.0488 8.35779C14.3739 5.986 14.9398 5.378 15.1143 5.3479C15.1806 5.33586 15.4816 5.47432 15.8668 6.26893C15.9752 6.48564 16.234 6.58195 16.4568 6.4736C16.6735 6.36524 16.7698 6.10639 16.6615 5.88366C16.1618 4.85428 15.602 4.37872 14.9759 4.47503C14.404 4.56533 13.9465 5.13721 13.6094 6.18465C13.2723 5.14323 12.8148 4.57135 12.2429 4.47503C11.6228 4.37872 11.057 4.84826 10.5573 5.88366C10.4489 6.10037 10.5453 6.36524 10.762 6.4736C10.9847 6.58195 11.2436 6.48564 11.3519 6.26893C11.7372 5.47432 12.0322 5.3479 12.1044 5.3479Z" fill="white"/>
<path d="M7.54075 14.0587C7.29996 14.0768 7.09528 14.2513 7.09528 14.4921C7.09528 14.6065 7.04712 14.7209 6.9809 14.7811C6.92672 14.8292 6.84245 14.8473 6.78827 14.8292C6.72205 14.8052 6.66185 14.7028 6.64379 14.5945C6.61971 14.462 6.64379 14.2935 6.72205 14.0647L6.78827 13.8601C6.84847 13.6855 6.91469 13.4989 6.9508 13.3002C7.02304 12.9149 6.9809 12.5598 6.82439 12.2769C6.64981 11.9638 6.33678 11.7291 5.96355 11.6448C5.65653 11.5725 5.31942 11.6026 4.98833 11.7291C4.56092 11.8916 4.22982 12.1986 4.08535 12.5718C3.94689 12.933 3.97097 13.3664 4.1636 13.8239C4.16962 13.836 4.17564 13.848 4.18166 13.8661C4.13953 13.8601 4.09739 13.854 4.05525 13.854C3.20645 13.854 2.51416 14.5463 2.51416 15.3891C2.51416 16.2379 3.20645 16.9241 4.05525 16.9241C4.90405 16.9241 5.59031 16.2379 5.59031 15.3891V15.3831C5.59031 15.3831 5.59031 15.3831 5.59031 15.377C5.59031 15.0219 5.5241 14.6727 5.39768 14.3477C5.33146 14.1791 5.24718 14.0166 5.1629 13.8601C5.09668 13.7397 5.03047 13.6132 4.98231 13.4868C4.87997 13.246 4.85589 13.0353 4.91609 12.8909C4.97027 12.7524 5.11474 12.626 5.3134 12.5538C5.47594 12.4936 5.63847 12.4755 5.77693 12.5056C5.90335 12.5357 6.0117 12.614 6.06588 12.7043C6.12006 12.8006 6.1321 12.9571 6.09598 13.1377C6.06588 13.2882 6.01772 13.4326 5.96355 13.5771C5.93947 13.6494 5.91539 13.7276 5.89131 13.7999C5.81305 14.0467 5.72877 14.3778 5.78295 14.7329C5.84917 15.1603 6.11404 15.5095 6.47523 15.6479C6.83643 15.7924 7.26384 15.7081 7.57085 15.4372C7.82971 15.2085 7.9802 14.8654 7.98622 14.4981C7.9802 14.2634 7.78757 14.0587 7.54075 14.0587ZM4.05525 16.0452C3.69405 16.0452 3.39306 15.7503 3.39306 15.3951C3.39306 15.0339 3.68804 14.745 4.05525 14.745C4.41644 14.745 4.70539 15.0399 4.70539 15.3951C4.71141 15.7503 4.41644 16.0452 4.05525 16.0452Z" fill="white"/>
<path d="M21.6832 5.05925L22.1106 6.66051C22.1648 6.85916 22.3394 6.98557 22.538 6.98557C22.5742 6.98557 22.6163 6.97956 22.6524 6.97354C22.8872 6.91334 23.0257 6.67255 22.9655 6.43176L22.815 5.85988L24.1574 6.63643L23.7902 7.2685C23.6698 7.4792 23.742 7.75009 23.9527 7.87048C24.025 7.91262 24.0972 7.93068 24.1754 7.93068C24.3259 7.93068 24.4764 7.85242 24.5547 7.71397L24.9219 7.08189L26.1259 7.78018C26.1981 7.82232 26.2704 7.84038 26.3486 7.84038C26.4991 7.84038 26.6496 7.76213 26.7279 7.62367C26.8483 7.41298 26.776 7.14209 26.5653 7.02169L25.3614 6.3234L25.7286 5.69132C25.849 5.48063 25.7767 5.20974 25.566 5.08935C25.3553 4.96895 25.0844 5.04119 24.9641 5.25188L24.5968 5.88396L23.2544 5.10741L23.8263 4.95691C24.0611 4.89671 24.1995 4.65592 24.1393 4.41513C24.0791 4.18036 23.8383 4.04191 23.5975 4.1021L21.9963 4.52951C21.9722 4.52951 21.9481 4.54155 21.93 4.55359C21.8999 4.56563 21.8698 4.57767 21.8397 4.59572C21.7916 4.63184 21.7555 4.67398 21.7254 4.72816C21.6953 4.78234 21.6772 4.83652 21.6712 4.89069C21.6591 4.95089 21.6652 5.00507 21.6832 5.05925Z" fill="white"/>
<path d="M33.8368 12.8909C33.3432 12.8909 32.9037 13.1919 32.7412 13.6313C32.6147 13.9805 32.2776 14.2152 31.9104 14.2152C31.5432 14.2152 31.2061 13.9805 31.0797 13.6313C30.9171 13.1859 30.4777 12.8909 29.9841 12.8909C29.7433 12.8909 29.5446 13.0896 29.5446 13.3303C29.5446 13.5711 29.7433 13.7698 29.9841 13.7698C30.1045 13.7698 30.2128 13.836 30.2489 13.9323C30.3633 14.2453 30.562 14.5042 30.8148 14.7029C30.58 14.9617 30.4356 15.3048 30.4356 15.6781C30.4356 16.4907 31.0977 17.1529 31.9044 17.1529C32.7111 17.1529 33.3733 16.4907 33.3733 15.6781C33.3733 15.2988 33.2288 14.9617 32.994 14.7029C33.2408 14.5042 33.4455 14.2453 33.5599 13.9323C33.596 13.836 33.7043 13.7698 33.8247 13.7698C34.0655 13.7698 34.2642 13.5711 34.2642 13.3303C34.2642 13.0896 34.0836 12.8909 33.8368 12.8909ZM32.5064 15.6841C32.5064 16.0091 32.2415 16.274 31.9164 16.274C31.5914 16.274 31.3265 16.0091 31.3265 15.6841C31.3265 15.359 31.5914 15.0941 31.9164 15.0941C32.2415 15.0941 32.5064 15.359 32.5064 15.6841Z" fill="white"/>
<path d="M30.194 24.9968H31.0549C31.2716 24.9968 31.4763 24.8764 31.5846 24.6898C31.693 24.5032 31.693 24.2805 31.5846 24.0999C31.5244 23.9976 31.4642 23.823 31.5365 23.6002C31.5906 23.4197 31.7472 23.2692 31.9338 23.221C32.1987 23.1488 32.3913 23.2511 32.4756 23.3173C32.6261 23.4317 32.7164 23.6063 32.7164 23.7989C32.7164 23.9073 32.6923 24.0036 32.6381 24.0999C32.5297 24.2805 32.5297 24.5092 32.6381 24.6958C32.7465 24.8825 32.9451 24.9968 33.1618 24.9968H34.0287C34.2695 24.9968 34.4681 24.7982 34.4681 24.5574C34.4681 24.3166 34.2695 24.1179 34.0287 24.1179H33.5712C33.5953 24.0156 33.6073 23.9073 33.6073 23.7989C33.6073 23.3294 33.3966 22.902 33.0234 22.613C32.6501 22.3301 32.1746 22.2398 31.711 22.3662C31.2355 22.4986 30.8502 22.8658 30.7057 23.3354C30.6214 23.5942 30.6094 23.8651 30.6696 24.1179H30.2121C29.9713 24.1179 29.7726 24.3166 29.7726 24.5574C29.7726 24.7982 29.9472 24.9968 30.194 24.9968Z" fill="white"/>
<path d="M30.1952 26.6343H34.0238C34.2646 26.6343 34.4633 26.4356 34.4633 26.1948C34.4633 25.954 34.2646 25.7554 34.0238 25.7554H30.1952C29.9544 25.7554 29.7557 25.954 29.7557 26.1948C29.7557 26.4356 29.9484 26.6343 30.1952 26.6343Z" fill="white"/>
<path d="M25.3729 29.9213C25.2344 29.9333 25.114 30.0116 25.0418 30.132L24.4338 31.1493L23.9883 30.6678C23.892 30.5654 23.7536 30.5173 23.6211 30.5293C23.4827 30.5413 23.3623 30.6196 23.29 30.74L22.682 31.7573L22.2366 31.2758C22.1402 31.1734 22.0018 31.1192 21.8693 31.1373C21.7309 31.1493 21.6105 31.2276 21.5382 31.348L20.6292 32.871C20.5028 33.0817 20.5751 33.3526 20.7797 33.473C20.852 33.5151 20.9302 33.5332 21.0025 33.5332C21.153 33.5332 21.2975 33.4549 21.3817 33.3165L21.9897 32.2991L22.4352 32.7807C22.5315 32.883 22.664 32.9312 22.8024 32.9191C22.9409 32.9071 23.0613 32.8289 23.1335 32.7085L23.7415 31.6911L24.187 32.1847C24.2833 32.2871 24.4218 32.3413 24.5542 32.3232C24.6927 32.3112 24.8131 32.2329 24.8853 32.1125L25.4933 31.0952L25.9388 31.5767C26.1073 31.7573 26.3842 31.7634 26.5588 31.6008C26.7394 31.4323 26.7454 31.1554 26.5829 30.9748L25.7341 30.0658C25.6438 29.9574 25.5053 29.9093 25.3729 29.9213Z" fill="white"/>
<path d="M26.1608 32.1789C26.0223 32.1909 25.902 32.2692 25.8297 32.3896L25.2217 33.4069L24.7762 32.9253C24.6799 32.823 24.5475 32.7749 24.409 32.7869C24.2706 32.7989 24.1502 32.8772 24.0779 32.9976L23.4699 34.0149L23.0245 33.5333C22.9281 33.431 22.7897 33.3768 22.6572 33.3949C22.5188 33.4069 22.3984 33.4852 22.3262 33.6056L21.4172 35.1286C21.2907 35.3393 21.363 35.6102 21.5676 35.7306C21.6399 35.7727 21.7181 35.7908 21.7904 35.7908C21.9409 35.7908 22.0854 35.7125 22.1696 35.574L22.7776 34.5567L23.2231 35.0383C23.3194 35.1406 23.4579 35.1888 23.5903 35.1767C23.7288 35.1647 23.8492 35.0864 23.9214 34.966L24.5294 33.9487L24.9749 34.4303C25.0712 34.5326 25.2097 34.5808 25.3421 34.5687C25.4806 34.5567 25.601 34.4784 25.6732 34.3581L26.2812 33.3407L26.7267 33.8223C26.8952 34.0029 27.1721 34.0089 27.3467 33.8464C27.5273 33.6778 27.5333 33.4009 27.3708 33.2203L26.522 32.3113C26.4317 32.215 26.2932 32.1608 26.1608 32.1789Z" fill="white"/>
<path d="M5.13871 23.6848C5.13871 23.3477 5.00627 23.0407 4.8016 22.8059C5.48184 22.7457 6.15005 23.0347 6.71592 23.6668C6.8002 23.7631 6.92661 23.8112 7.04701 23.8112C7.14935 23.8112 7.25771 23.7751 7.34198 23.6969C7.52258 23.5343 7.54064 23.2574 7.3781 23.0768C6.18617 21.7404 4.51264 21.5418 3.09195 22.5652C3.07992 22.5712 3.06788 22.5772 3.06186 22.5832C3.05584 22.5832 3.05584 22.5892 3.04982 22.5892L3.0438 22.5953C2.70668 22.836 2.48395 23.2333 2.48395 23.6788C2.48395 24.4132 3.07992 25.0092 3.81434 25.0092C4.54876 25.0092 5.13871 24.4192 5.13871 23.6848ZM3.35683 23.6848C3.35683 23.438 3.55548 23.2333 3.80832 23.2333C4.05513 23.2333 4.25981 23.438 4.25981 23.6848C4.25981 23.9316 4.05513 24.1363 3.80832 24.1363C3.55548 24.1363 3.35683 23.9316 3.35683 23.6848Z" fill="white"/>
<path d="M5.89223 27.5916C6.53033 27.5916 7.18048 27.3749 7.78247 26.9415C7.78849 26.9354 7.79451 26.9354 7.80053 26.9294C7.80655 26.9294 7.80655 26.9234 7.81257 26.9234C7.81859 26.9234 7.81859 26.9174 7.81859 26.9114C8.1557 26.6706 8.37843 26.2733 8.37843 25.8278C8.37843 25.0934 7.78247 24.4974 7.04804 24.4974C6.31362 24.4974 5.71765 25.0934 5.71765 25.8278C5.71765 26.1649 5.85009 26.4719 6.05476 26.7067C5.37452 26.7669 4.70631 26.4779 4.14045 25.8459C3.97791 25.6653 3.701 25.6472 3.5204 25.8097C3.3398 25.9723 3.32174 26.2492 3.48428 26.4298C4.18258 27.2003 5.03139 27.5916 5.89223 27.5916ZM7.05406 25.3763C7.30088 25.3763 7.50555 25.581 7.50555 25.8278C7.50555 26.0746 7.30088 26.2793 7.05406 26.2793C6.80725 26.2793 6.60257 26.0746 6.60257 25.8278C6.60859 25.581 6.80725 25.3763 7.05406 25.3763Z" fill="white"/>
<path d="M14.4459 32.2029H14.1148C14.163 31.9019 14.2653 31.5949 14.4279 31.2879C14.5422 31.0711 14.4579 30.8063 14.2412 30.6919C14.0245 30.5775 13.7596 30.6618 13.6453 30.8785C13.4105 31.318 13.272 31.7634 13.2179 32.2089H12.6159C12.5617 31.7634 12.4172 31.324 12.1885 30.8785C12.0741 30.6618 11.8092 30.5775 11.5925 30.6919C11.3758 30.8063 11.2975 31.0711 11.4059 31.2879C11.5684 31.5949 11.6707 31.9019 11.7189 32.2029H11.3878C11.147 32.2029 10.9484 32.4015 10.9484 32.6423C10.9484 32.8831 11.147 33.0818 11.3878 33.0818H11.7069C11.6527 33.3647 11.5564 33.6536 11.4059 33.9366C11.2915 34.1533 11.3758 34.4181 11.5925 34.5325C11.6587 34.5686 11.7309 34.5807 11.7972 34.5807C11.9537 34.5807 12.1102 34.4964 12.1885 34.3459C12.4112 33.9245 12.5496 33.5031 12.6098 33.0757H13.2299C13.2901 33.4971 13.4286 33.9245 13.6513 34.3459C13.7295 34.4964 13.8861 34.5807 14.0426 34.5807C14.1148 34.5807 14.181 34.5626 14.2473 34.5325C14.464 34.4181 14.5422 34.1533 14.4339 33.9366C14.2834 33.6476 14.1871 33.3647 14.1329 33.0818H14.4519C14.6927 33.0818 14.8914 32.8831 14.8914 32.6423C14.8914 32.4015 14.6927 32.2029 14.4459 32.2029Z" fill="white"/>
<path d="M28.4379 19.667C28.4379 24.9529 24.0776 29.238 18.6989 29.238C13.3203 29.238 8.95996 24.9529 8.95996 19.667C8.95996 14.3812 13.3203 10.0961 18.6989 10.0961C24.0776 10.0961 28.4379 14.3812 28.4379 19.667Z" fill="#D08622"/>
<path d="M18.7683 0.948639C23.7505 0.94868 28.4386 2.88635 31.9587 6.41251L32.2849 6.74551C35.6044 10.2256 37.4226 14.7764 37.4226 19.6029C37.4226 24.4295 35.6042 28.9742 32.2849 32.4594L31.9587 32.7934C28.4385 36.3196 23.7506 38.2572 18.7683 38.2572C13.9417 38.2572 9.39097 36.4391 5.91089 33.1195L5.57788 32.7934C2.05179 29.2672 0.114014 24.5853 0.114014 19.6029C0.114057 14.6206 2.05168 9.93273 5.57788 6.41251L5.91089 6.08633C9.39096 2.76679 13.9417 0.948667 18.7683 0.948639ZM18.3035 38.1723L18.7683 38.1781C18.5627 38.1781 18.3576 38.1731 18.1531 38.1664C18.2032 38.168 18.2533 38.1711 18.3035 38.1723ZM17.4001 38.1283C17.602 38.1429 17.8045 38.1523 18.0076 38.1606C17.8045 38.1523 17.602 38.1429 17.4001 38.1283ZM26.1521 27.7221C25.8701 27.9769 25.5793 28.2077 25.2781 28.4311L25.2556 28.4555L25.2156 28.4926C25.1897 28.512 25.1625 28.5228 25.1355 28.5346L25.1365 28.5356C23.4306 29.7643 21.4117 30.4726 19.2849 30.5707V37.2152C23.6238 37.0897 27.6956 35.4002 30.8533 32.4232L26.1521 27.7221ZM6.68823 32.4174C9.84587 35.4003 13.9184 37.0839 18.2576 37.2094V30.5648C16.1452 30.4669 14.1465 29.7662 12.4421 28.558C12.3966 28.5446 12.3522 28.5263 12.3123 28.4945V28.4955C12.268 28.4659 12.2383 28.4291 12.2156 28.4008C11.9317 28.189 11.6523 27.9662 11.3826 27.7231L6.68823 32.4174ZM22.4568 36.9184C22.3341 36.9443 22.2111 36.9692 22.0876 36.9926C22.3441 36.9441 22.599 36.8901 22.8523 36.8305L22.4568 36.9184ZM11.9998 35.9594C12.048 35.9793 12.0969 35.9975 12.1453 36.017C11.9721 35.9471 11.7995 35.8756 11.6287 35.8002L11.9998 35.9594ZM10.8972 35.4574C11.0179 35.5175 11.1394 35.576 11.2615 35.6332L10.8982 35.4574C10.7774 35.3973 10.6573 35.3358 10.5378 35.2729L10.8972 35.4574ZM9.83081 34.8793C9.9473 34.9477 10.0645 35.0148 10.1824 35.0805L9.83179 34.8793C9.71528 34.8109 9.59918 34.7415 9.48413 34.6703L9.83081 34.8793ZM7.65308 33.3676C8.13261 33.7565 8.62898 34.1188 9.14136 34.4525L8.80347 34.226C8.41009 33.9566 8.02636 33.6703 7.65308 33.3676ZM6.57495 32.4203C6.92101 32.7502 7.27887 33.0635 7.64624 33.3617C7.27869 33.0634 6.92114 32.7493 6.57495 32.4193V32.4203ZM5.10718 32.1869C5.16381 32.2483 5.22052 32.3097 5.27808 32.3705C5.2205 32.3098 5.16383 32.2483 5.10718 32.1869ZM4.75366 31.7934C4.81361 31.8621 4.87425 31.9304 4.9353 31.9984C4.87423 31.9304 4.81363 31.8621 4.75366 31.7934ZM1.15601 20.1195C1.28154 24.4581 2.97046 28.5303 5.94702 31.6879L10.6472 26.9877C8.91617 25.0898 7.91857 22.6848 7.80054 20.1195H1.15601ZM29.7361 20.1195C29.618 22.685 28.6197 25.0897 26.8884 26.9877L31.5876 31.6869C34.5644 28.5293 36.2541 24.4583 36.3796 20.1195H29.7361ZM4.43335 31.4164C4.47308 31.4645 4.51322 31.5122 4.55347 31.56C4.51321 31.5122 4.47309 31.4645 4.43335 31.4164ZM17.8308 30.4574C17.8832 30.4619 17.9355 30.4664 17.988 30.4701C17.9355 30.4664 17.8832 30.4619 17.8308 30.4574ZM17.5447 30.4311C17.5801 30.4351 17.6157 30.4372 17.6511 30.4408C17.5993 30.4355 17.5475 30.4303 17.4958 30.4242L17.5447 30.4311ZM16.3816 30.2348C16.5089 30.2635 16.6368 30.2897 16.7654 30.3139L16.3816 30.2338C16.2543 30.2051 16.1276 30.1743 16.0017 30.141L16.3816 30.2348ZM18.4587 10.1606C13.175 10.1608 8.89158 14.4443 8.89136 19.7279C8.89136 25.0118 13.1748 29.296 18.4587 29.2963C23.7429 29.2963 28.0271 25.0119 28.0271 19.7279C28.0269 14.4441 23.7427 10.1606 18.4587 10.1606ZM8.36499 22.8783C8.41097 23.0246 8.46031 23.1698 8.51245 23.3139C8.4594 23.1673 8.40977 23.0194 8.36304 22.8705L8.36499 22.8783ZM29.5222 21.3979C29.5443 21.2644 29.5635 21.1302 29.5808 20.9955C29.5634 21.1302 29.5443 21.2643 29.5222 21.3979ZM29.5935 20.8822C29.6052 20.7835 29.6157 20.6846 29.6248 20.5854C29.6159 20.6846 29.6052 20.7835 29.5935 20.8822ZM37.3259 18.8109C37.3369 19.074 37.3435 19.338 37.3435 19.6029L37.3386 19.1537C37.3359 19.0393 37.3307 18.925 37.3259 18.8109ZM7.89624 18.7934L7.87476 19.1654L7.89722 18.7943C7.9061 18.6768 7.91592 18.5595 7.92847 18.4428C7.91592 18.5592 7.90511 18.6761 7.89624 18.7934ZM5.94702 7.517C2.97015 10.6688 1.28156 14.7416 1.15601 19.0863H7.79956C7.84708 18.1151 8.01827 17.1667 8.30444 16.2641C8.30459 16.2594 8.30488 16.2539 8.30542 16.2484C8.30625 16.2405 8.30993 16.2291 8.31421 16.2162H8.31323C8.32135 16.1838 8.33605 16.1584 8.34741 16.141C8.82864 14.7016 9.60133 13.367 10.6472 12.2172L5.94702 7.517ZM26.8943 12.2172C28.6201 14.1152 29.618 16.5207 29.7361 19.0863H36.3865C36.2609 14.7473 34.5716 10.6747 31.5945 7.517L26.8943 12.2172ZM8.41968 16.1752C8.40772 16.1931 8.39638 16.2118 8.39038 16.2357L8.42065 16.1752C8.48123 15.9935 8.54609 15.8133 8.61597 15.6352V15.6342C8.54591 15.8127 8.48038 15.9931 8.41968 16.1752ZM8.96167 14.8451C8.91983 14.9312 8.87914 15.0178 8.8396 15.1049L8.96265 14.8451C9.00463 14.7587 9.04727 14.6726 9.09155 14.5873L8.96167 14.8451ZM9.36987 14.0834C9.3212 14.1662 9.2737 14.2495 9.22729 14.3334L9.37085 14.0834C9.4196 14.0005 9.46925 13.918 9.52026 13.8363L9.36987 14.0834ZM10.0398 13.0795C9.97761 13.1626 9.91583 13.2458 9.8562 13.3305C9.91582 13.2458 9.97769 13.1627 10.0398 13.0795ZM10.1863 12.8852C10.1694 12.9067 10.1532 12.9289 10.1365 12.9506C10.2125 12.8518 10.2901 12.754 10.3699 12.6576L10.1863 12.8852ZM34.447 11.3666C34.5098 11.4858 34.5716 11.6055 34.6316 11.726L34.448 11.3666C34.3851 11.2473 34.3203 11.129 34.2546 11.0111L34.447 11.3666ZM26.1619 11.5912L25.7976 11.269L25.7996 11.2709C25.9223 11.375 26.043 11.4823 26.1619 11.5922L30.9734 6.78067L30.9724 6.77969L26.1619 11.5912ZM11.7371 11.2709C11.6163 11.3729 11.4965 11.4767 11.3796 11.5844L11.3806 11.5854C11.4975 11.4777 11.6164 11.3729 11.7371 11.2709ZM19.2908 8.64005C21.8559 8.75796 24.2609 9.7508 26.1589 11.4818L30.8591 6.78165C27.7075 3.79933 23.6354 2.1151 19.2908 1.98965V8.64005ZM18.2517 1.98965C13.9069 2.11516 9.83419 3.80471 6.68237 6.77579L11.3826 11.476C13.2806 9.75037 15.6862 8.75222 18.2517 8.63419V1.98965ZM12.0828 10.9906C11.9757 11.0739 11.8697 11.159 11.7654 11.2465C11.8697 11.1589 11.9757 11.0739 12.0828 10.9906ZM12.5085 10.6742C12.3867 10.7599 12.2669 10.849 12.1482 10.9398C12.3944 10.7512 12.6475 10.5736 12.907 10.4076L12.5085 10.6742ZM14.0154 9.78653C13.9405 9.82289 13.8658 9.85975 13.7917 9.89786C13.8658 9.85977 13.9405 9.82287 14.0154 9.78653ZM14.3113 9.64786C14.2666 9.66788 14.2228 9.68972 14.1785 9.71036C14.2228 9.68974 14.2666 9.66787 14.3113 9.64786ZM14.5974 9.52481C14.5594 9.54054 14.5219 9.55747 14.4841 9.57364C14.5413 9.54921 14.5984 9.52481 14.656 9.50137L14.5974 9.52481ZM15.9509 9.0668C15.7971 9.1077 15.6445 9.15205 15.4929 9.19962L15.9519 9.0668C16.1058 9.02588 16.2608 8.98867 16.4167 8.9545L15.9509 9.0668ZM31.9939 7.83633C31.9554 7.79315 31.9176 7.74931 31.8787 7.70645L31.5974 7.40372C31.7325 7.54577 31.864 7.69061 31.9939 7.83633ZM29.8562 5.79922C29.7829 5.74002 29.7077 5.68333 29.6335 5.6254C29.7077 5.68332 29.7829 5.74003 29.8562 5.79922ZM7.02319 5.21036C6.92182 5.29349 6.82128 5.37783 6.72144 5.46329C6.82128 5.37783 6.92184 5.29351 7.02319 5.21036ZM29.324 5.38712C29.2506 5.3323 29.1764 5.27859 29.1023 5.22501C29.1765 5.27857 29.2505 5.33232 29.324 5.38712ZM7.35815 4.93985C7.32773 4.96364 7.29861 4.9891 7.26831 5.01309C7.41842 4.89411 7.56914 4.7764 7.72241 4.66251L7.35815 4.93985ZM28.7673 4.98868C28.6954 4.93922 28.6231 4.89051 28.5505 4.84219C28.6231 4.8905 28.6954 4.93924 28.7673 4.98868ZM8.84741 3.88907C8.7198 3.96999 8.59333 4.05293 8.46753 4.13712L8.84839 3.88907C8.97612 3.80807 9.10463 3.7285 9.23413 3.65079L8.84741 3.88907ZM10.0222 3.20352C9.88918 3.27467 9.75711 3.34778 9.62573 3.42227L10.0222 3.2045C10.1553 3.13332 10.2889 3.06333 10.4236 2.99551L10.0222 3.20352ZM24.0339 2.69376C24.1626 2.73356 24.2911 2.77407 24.4187 2.8168L24.0349 2.69376C23.9059 2.65384 23.7763 2.61548 23.6462 2.57852L24.0339 2.69376ZM11.24 2.6088C11.1022 2.66986 10.9652 2.7328 10.8289 2.79727L11.24 2.60977C11.3777 2.54873 11.5159 2.48868 11.655 2.43106L11.24 2.6088ZM12.9255 1.95938C12.7823 2.00662 12.6398 2.05611 12.4978 2.10684L12.9255 1.96036C13.0685 1.9132 13.212 1.8673 13.3562 1.82364L12.9255 1.95938ZM17.5046 1.94766C17.4525 1.95133 17.4005 1.95624 17.3484 1.96036C17.5373 1.94542 17.7267 1.93224 17.9167 1.92325L17.5046 1.94766Z" fill="white"/>
</svg>
