<svg width="42" height="42" viewBox="0 0 42 42" fill="none" xmlns="http://www.w3.org/2000/svg">
<path d="M28.0582 25.4058C27.2591 26.5759 26.1711 27.5195 24.8999 28.1453C23.6287 28.7712 22.2173 29.0578 20.8027 28.9776C19.3881 28.8974 18.0182 28.4529 16.8259 27.6874C15.6335 26.9218 14.6593 25.8612 13.9976 24.6083C13.3359 23.3554 13.0092 21.9527 13.0492 20.5364C13.0891 19.12 13.4945 17.738 14.2258 16.5245C14.9571 15.3109 15.9896 14.3068 17.2232 13.6098C18.4568 12.9127 19.8496 12.5462 21.2665 12.5459C21.5839 12.5209 21.9028 12.5209 22.2203 12.5459C21.6188 13.7524 21.2946 15.078 21.2715 16.4258C21.2483 17.7737 21.5267 19.1096 22.0863 20.336C22.6459 21.5624 23.4725 22.6483 24.5058 23.514C25.5391 24.3798 26.7528 25.0037 28.0582 25.34V25.4058Z" fill="white"/>
<path d="M37.7111 16.6571C37.7111 18.1207 37.2771 19.5515 36.4639 20.7684C35.6508 21.9854 34.495 22.9339 33.1428 23.494C31.7906 24.0541 30.3027 24.2007 28.8672 23.9151C27.4317 23.6296 26.1131 22.9248 25.0782 21.8898C24.0432 20.8549 23.3384 19.5363 23.0529 18.1008C22.7674 16.6653 22.9139 15.1774 23.474 13.8252C24.0341 12.473 24.9826 11.3172 26.1996 10.5041C27.4165 9.69096 28.8473 9.25694 30.3109 9.25694C30.4804 9.24065 30.6511 9.24065 30.8207 9.25694H30.9358C30.3643 10.201 30.1258 11.3094 30.2585 12.405C30.3911 13.5006 30.8873 14.52 31.6677 15.3004C32.448 16.0807 33.4675 16.5769 34.563 16.7096C35.6586 16.8422 36.767 16.6037 37.7111 16.0322C37.7182 16.0703 37.7182 16.1093 37.7111 16.1473C37.7274 16.3169 37.7274 16.4876 37.7111 16.6571Z" fill="white"/>
<path d="M21.2663 10.9014C20.8302 10.9014 20.4119 10.7281 20.1035 10.4197C19.7951 10.1113 19.6218 9.69306 19.6218 9.25691V5.96794C19.6218 5.5318 19.7951 5.11352 20.1035 4.80511C20.4119 4.49671 20.8302 4.32346 21.2663 4.32346C21.7025 4.32346 22.1207 4.49671 22.4291 4.80511C22.7375 5.11352 22.9108 5.5318 22.9108 5.96794V9.25691C22.9108 9.69306 22.7375 10.1113 22.4291 10.4197C22.1207 10.7281 21.7025 10.9014 21.2663 10.9014Z" fill="white"/>
<path d="M31.7253 32.8717C31.2938 32.8699 30.8804 32.6986 30.5741 32.3948L28.2389 30.0761C27.9293 29.7664 27.7553 29.3464 27.7553 28.9085C27.7553 28.4706 27.9293 28.0506 28.2389 27.7409C28.5486 27.4313 28.9686 27.2573 29.4065 27.2573C29.8445 27.2573 30.2644 27.4313 30.5741 27.7409L32.8928 30.0761C33.1991 30.3842 33.371 30.801 33.371 31.2355C33.371 31.6699 33.1991 32.0867 32.8928 32.3948C32.7392 32.5472 32.5569 32.6678 32.3566 32.7496C32.1562 32.8315 31.9417 32.873 31.7253 32.8717Z" fill="white"/>
<path d="M21.2663 37.2131C20.8302 37.2131 20.4119 37.0399 20.1035 36.7315C19.7951 36.4231 19.6218 36.0048 19.6218 35.5687V32.2797C19.6218 31.8435 19.7951 31.4253 20.1035 31.1169C20.4119 30.8084 20.8302 30.6352 21.2663 30.6352C21.7025 30.6352 22.1207 30.8084 22.4291 31.1169C22.7375 31.4253 22.9108 31.8435 22.9108 32.2797V35.5687C22.9108 36.0048 22.7375 36.4231 22.4291 36.7315C22.1207 37.0399 21.7025 37.2131 21.2663 37.2131Z" fill="white"/>
<path d="M10.8074 32.8717C10.591 32.873 10.3764 32.8315 10.1761 32.7496C9.97572 32.6678 9.79349 32.5472 9.63983 32.3948C9.33354 32.0867 9.16162 31.6699 9.16162 31.2355C9.16162 30.801 9.33354 30.3842 9.63983 30.0761L11.9586 27.7409C12.2682 27.4313 12.6882 27.2573 13.1261 27.2573C13.5641 27.2573 13.9841 27.4313 14.2937 27.7409C14.6034 28.0506 14.7773 28.4706 14.7773 28.9085C14.7773 29.3464 14.6034 29.7664 14.2937 30.0761L11.9586 32.3948C11.6522 32.6986 11.2388 32.8699 10.8074 32.8717Z" fill="white"/>
<path d="M9.75493 22.4128H6.46596C6.02981 22.4128 5.61153 22.2396 5.30313 21.9312C4.99473 21.6228 4.82147 21.2045 4.82147 20.7683C4.82147 20.3322 4.99473 19.9139 5.30313 19.6055C5.61153 19.2971 6.02981 19.1238 6.46596 19.1238H9.75493C10.1911 19.1238 10.6094 19.2971 10.9178 19.6055C11.2262 19.9139 11.3994 20.3322 11.3994 20.7683C11.3994 21.2045 11.2262 21.6228 10.9178 21.9312C10.6094 22.2396 10.1911 22.4128 9.75493 22.4128Z" fill="white"/>
<path d="M13.1261 14.2726C12.9097 14.2738 12.6952 14.2324 12.4948 14.1505C12.2944 14.0687 12.1122 13.9481 11.9585 13.7957L9.63981 11.4605C9.3704 11.1459 9.22962 10.7413 9.24561 10.3274C9.2616 9.91351 9.43317 9.5209 9.72604 9.22803C10.0189 8.93515 10.4115 8.76358 10.8254 8.74759C11.2393 8.73161 11.6439 8.87239 11.9585 9.1418L14.2937 11.4605C14.4478 11.6134 14.5702 11.7953 14.6537 11.9957C14.7372 12.1961 14.7801 12.411 14.7801 12.6281C14.7801 12.8452 14.7372 13.0601 14.6537 13.2605C14.5702 13.4609 14.4478 13.6428 14.2937 13.7957C14.14 13.9481 13.9578 14.0687 13.7575 14.1505C13.5571 14.2324 13.3425 14.2738 13.1261 14.2726Z" fill="white"/>
</svg>
