<svg width="36" height="36" viewBox="0 0 36 36" fill="none" xmlns="http://www.w3.org/2000/svg">
<path d="M4.83752 10.8065L8.0846 16.9723L11.3575 10.8065H4.83752Z" fill="white"/>
<path d="M11.3578 25.1934L8.07885 19.0276L4.7821 25.1934H11.3578Z" fill="white"/>
<path d="M21.6157 8.75116L18.3391 0.530029L15.0622 8.75116H21.6157Z" fill="white"/>
<path d="M25.3204 10.8065L28.566 16.9723L31.5907 10.8065H25.3204Z" fill="white"/>
<path d="M15.0624 27.2487L18.339 35.4698L21.6157 27.2487H15.0624Z" fill="white"/>
<path d="M18.9412 21.0829L21.4221 18.6019V17.398L18.9412 14.917H17.7372L15.2563 17.398V18.6019L17.7372 21.0829H18.9412Z" fill="white"/>
<path d="M28.5995 19.0276L25.3207 25.1934H31.8961L28.5995 19.0276Z" fill="white"/>
<path d="M20.6105 35.3225C25.996 34.6279 30.4987 31.5077 33.1666 27.2487H24.0386C20.144 36.4212 20.6572 35.2123 20.6105 35.3225Z" fill="white"/>
<path d="M12.64 27.2487H3.5116C6.17682 31.5034 10.6767 34.6272 16.0678 35.3226C16.0241 35.2196 16.5375 36.4288 12.64 27.2487Z" fill="white"/>
<path d="M33.1665 8.75119C30.5033 4.49977 26.0049 1.37265 20.6102 0.676941L24.0382 8.75119H33.1665Z" fill="white"/>
<path d="M16.068 0.676941C10.6817 1.37156 6.17906 4.49326 3.51178 8.75119H12.6397L16.068 0.676941Z" fill="white"/>
<path d="M34.1357 10.5181L33.4049 11.7749L30.3652 17.9712L33.6751 24.1617L34.2911 25.1439C36.331 20.5934 36.351 15.1869 34.1357 10.5181Z" fill="white"/>
<path d="M13.7802 25.1934H22.898C27.3387 17.0454 26.7464 18.1324 26.8011 18.0319C26.7472 17.9321 27.335 19.02 22.898 10.8065H13.78C9.32733 18.9903 9.91726 17.906 9.86314 18.0055C9.91637 18.1033 9.33096 17.0289 13.7802 25.1934ZM13.2009 16.5466L16.8858 12.8617H19.7924L23.4773 16.5466V19.4532L19.7924 23.1381H16.8858L13.2009 19.4532V16.5466Z" fill="white"/>
<path d="M3.05227 11.8272L2.41444 10.7966C0.360531 15.3319 0.354913 20.6106 2.38718 25.1438L3.00321 24.1617L6.30043 17.995L3.05227 11.8272Z" fill="white"/>
</svg>
