<svg width="25" height="24" viewBox="0 0 25 24" fill="none" xmlns="http://www.w3.org/2000/svg">
<path d="M3.04652 14.7696C2.83387 16.1636 3.7846 17.1312 4.94866 17.6134C9.41141 19.4622 15.6218 19.4622 20.0845 17.6134C21.2486 17.1312 22.1993 16.1636 21.9867 14.7696C21.856 13.9129 21.2098 13.1995 20.731 12.5029C20.1039 11.5793 20.0416 10.5718 20.0415 9.5C20.0415 5.35786 16.6725 2 12.5166 2C8.36073 2 4.99173 5.35786 4.99173 9.5C4.99164 10.5718 4.92933 11.5793 4.30221 12.5029C3.82344 13.1995 3.17721 13.9129 3.04652 14.7696Z" stroke="#393F43" stroke-width="1.5" stroke-linecap="round" stroke-linejoin="round"/>
<path d="M8.5166 19C8.97509 20.7252 10.5921 22 12.5166 22C14.4411 22 16.0581 20.7252 16.5166 19" stroke="#393F43" stroke-width="1.5" stroke-linecap="round" stroke-linejoin="round"/>
</svg>
