<svg width="20" height="20" viewBox="0 0 20 20" fill="none" xmlns="http://www.w3.org/2000/svg">
<path d="M18.9241 4.26953C18.9241 5.92639 17.5809 7.26953 15.9241 7.26953C14.2672 7.26953 12.9241 5.92639 12.9241 4.26953C12.9241 2.61268 14.2672 1.26953 15.9241 1.26953C17.5809 1.26953 18.9241 2.61268 18.9241 4.26953Z" stroke="#FCFCFC" stroke-width="1.5"/>
<path d="M6.92407 9.76953C6.92407 11.4264 5.58093 12.7695 3.92407 12.7695C2.26722 12.7695 0.924072 11.4264 0.924072 9.76953C0.924072 8.11268 2.26722 6.76953 3.92407 6.76953C5.58093 6.76953 6.92407 8.11268 6.92407 9.76953Z" stroke="#FCFCFC" stroke-width="1.5"/>
<path d="M18.9241 15.2695C18.9241 16.9264 17.5809 18.2695 15.9241 18.2695C14.2672 18.2695 12.9241 16.9264 12.9241 15.2695C12.9241 13.6127 14.2672 12.2695 15.9241 12.2695C17.5809 12.2695 18.9241 13.6127 18.9241 15.2695Z" stroke="#FCFCFC" stroke-width="1.5"/>
<path d="M6.65259 8.5193L13.1526 5.51984M6.65259 11.0198L13.1526 14.0193" stroke="#FCFCFC" stroke-width="1.5"/>
</svg>
